<svg xmlns="http://www.w3.org/2000/svg" width="123.668" height="130.579" viewBox="0 0 123.668 130.579"><path d="M234.144,298.022a8.876,8.876,0,0,1-4.022-.988c-1.552-.989-4.859-2.822-4.868-10.161-.01-8.095,7.056-7.268,7.9-5.786m47.885,0c.847-1.481,7.914-2.309,7.9,5.786-.009,7.339-3.316,9.172-4.868,10.161a8.876,8.876,0,0,1-4.022.988m-39.866-44.417-2.172,2.433c-3.457,4.587-5.39,11.485-4.948,21.519.715,16.226,1.076,17.548,1.076,17.548s.94,22.2,22.954,22.2,22.955-22.2,22.955-22.2.361-1.322,1.076-17.548c1.011-22.933-10.39-29.491-24.031-29.491-6.217,0-11.969,1.362-16.292,5.016m13.164,43.528h2.3a3.558,3.558,0,0,0,3.559-3.558V288m-13.042,13.068a10.853,10.853,0,0,0,20.227,0m-26.407-30.04a43.59,43.59,0,0,0-7.593,2.887s5.052,6.208,23.655,6.208,24.517-6.208,24.517-6.208a55.729,55.729,0,0,0-24.086-5.242,59.239,59.239,0,0,0-12.935,1.44M227.37,342.079v33.567m-16.182-12.3H227.37m75.639-14.865V338.129c0-7.15-7.339-15.618-15.993-15.618H227.182c-8.655,0-15.993,8.468-15.993,15.618v10.348m0,6.062v21.108h91.821V354.538m-16.182-12.459v33.567m0-12.3h16.182M227.37,346.729h9.517V322.51m39.546,0v24.218h9.517M246.322,322.51v23.233h20.691V322.51m-10.345-74.443v12.028m-41.432,57.214H182.611V272.748h32.625Zm-5.906-44.561v-5.442l-26.719,5.442m13.856,16.666h-7.951l6.432,4.673-2.457,7.562,6.432-4.673,6.432,4.673-2.456-7.562,6.431-4.673h-7.95l-2.457-7.56Z" transform="translate(-180.842 -246.567)" fill="none" stroke="#7fb3eb" stroke-linecap="round" stroke-linejoin="round" stroke-width="3"/></svg>