<svg xmlns="http://www.w3.org/2000/svg" width="148.394" height="129.229" viewBox="0 0 148.394 129.229"><path d="M-527.315,481.514h35.447a4.65,4.65,0,0,1,4.65,4.65,4.65,4.65,0,0,1-4.65,4.649h-63.886a4.649,4.649,0,0,1-4.649-4.649,4.65,4.65,0,0,1,4.649-4.65H-531.3m-21.981,9.3v37.978m22.753-37.978v37.978m0-20.978a5.623,5.623,0,0,1,5.895-5.616,5.727,5.727,0,0,1,5.351,5.775v28.258H-492.2a6.194,6.194,0,0,0,6.195-6.195V517.513l-8.9-26.7m55.972,62.512v-15.1a16.772,16.772,0,0,0-15.315-16.708l-38.659-3.37a4.564,4.564,0,0,0-4.966,4.547v13.532m36.225-15.354v8.732a7.5,7.5,0,0,0,7.494,7.494h15.221m-60.919,6.331v9.893m10.882-9.893v9.893m10.882-9.893v9.893m-31.459,7.321h36.542m-15.966,9.5h16.389m-47.845,0h25.916m40.424-24.9a19.316,19.316,0,0,0-19.316,19.315,19.316,19.316,0,0,0,19.316,19.316,19.316,19.316,0,0,0,19.315-19.316A19.315,19.315,0,0,0-454.093,545.243Zm0,12.9a6.414,6.414,0,0,0-6.414,6.414,6.414,6.414,0,0,0,6.414,6.414,6.414,6.414,0,0,0,6.414-6.414A6.414,6.414,0,0,0-454.093,558.145ZM-542.5,534.687A24.594,24.594,0,0,0-567.1,559.28,24.594,24.594,0,0,0-542.5,583.874a24.594,24.594,0,0,0,24.593-24.594A24.594,24.594,0,0,0-542.5,534.687Zm30.96,35.456A32.752,32.752,0,0,0-509.7,559.28a32.8,32.8,0,0,0-32.8-32.8,32.679,32.679,0,0,0-21.7,8.206c-1.919,1.822-3.582,4.592-.828,6.628,2,1.481,3.115,2.317,3.115,2.317m19.416,6.152a9.5,9.5,0,0,0-9.5,9.5,9.5,9.5,0,0,0,9.5,9.5,9.5,9.5,0,0,0,9.5-9.5A9.5,9.5,0,0,0-542.5,549.782Zm88.411-4.539v6.5m0,25.633v6.5M-467.752,550.9l4.6,4.6m18.125,18.125,4.6,4.6m-32.974-13.659h6.5m25.633,0h6.5m-32.974,13.659,4.6-4.6m18.125-18.125,4.6-4.6M-542.5,534.687v8.275m0,32.637v8.275m-17.391-41.984,5.852,5.851m23.078,23.078,5.851,5.851M-567.1,559.28h8.275m32.637,0h8.275m-41.984,17.39,5.852-5.851m23.078-23.078,5.851-5.851m16.845-21.937,6.75-10.781m4.555,10.781-8.123-5.408m40.775,6.2V503.065a1.974,1.974,0,0,0-1.974-1.974h-5.149a1.974,1.974,0,0,0-1.974,1.974V519.85m12.527-31.092L-466.79,491a3.212,3.212,0,0,0-2.07,3v6.821m29.832-43.182a17.324,17.324,0,0,0-17.324,17.324,17.324,17.324,0,0,0,17.324,17.324A17.324,17.324,0,0,0-421.7,474.969,17.324,17.324,0,0,0-439.028,457.645Z" transform="translate(568.598 -456.145)" fill="none" stroke="#7fb3eb" stroke-miterlimit="10" stroke-width="3"/></svg>