<svg xmlns="http://www.w3.org/2000/svg" width="156.671" height="143.737" viewBox="0 0 156.671 143.737"><path d="M265.1,449.5H382.148m-82.555-29.042V394.57a3.156,3.156,0,0,0-3.155-3.155h-21.4a3.156,3.156,0,0,0-3.155,3.155V449.5m27.715-23.587V449.5m37.445,0V412.26a3.156,3.156,0,0,0-3.155-3.155H313.069a3.156,3.156,0,0,0-3.155,3.155V449.5m64.864,0V432.457a3.156,3.156,0,0,0-3.155-3.156H350.808a3.156,3.156,0,0,0-3.155,3.156V449.5M289.874,326.615A27.125,27.125,0,1,0,317,353.74,27.125,27.125,0,0,0,289.874,326.615Zm-10,34.086a10.69,10.69,0,0,0,20.684-3.791V353.8H279.186v-3.108a10.689,10.689,0,0,1,20.683-3.791m-10-12.24v5.344m0,27.466v5.344m83.571,41.233-26.572-26.572a5.264,5.264,0,0,0-7.445,0l-4.321,4.321a5.264,5.264,0,0,1-7.445,0l-18.747-18.747m65.122,27.326v14.241H359.8m-16.121-44.555,8,8a5.356,5.356,0,0,0,7.574-7.574L335.755,347a5.356,5.356,0,1,0-7.574,7.574l10.673,10.673m57.063-31.419a5.356,5.356,0,0,1-7.575,7.574L364.848,317.9a5.356,5.356,0,1,1,7.575-7.574ZM383.3,356.286l31.186,31.186a6.588,6.588,0,0,1-9.317,9.317L373.987,365.6M335.755,347,364.848,317.9m-5.6,52.588L388.343,341.4m-6.864,6.864,2.223,2.223a4.012,4.012,0,0,1,0,5.674l-9.689,9.69a4.013,4.013,0,0,1-5.674,0l-2.223-2.223" transform="translate(-261.248 -307.261)" fill="none" stroke="#7fb3eb" stroke-linecap="round" stroke-linejoin="round" stroke-width="3"/></svg>