<svg xmlns="http://www.w3.org/2000/svg" width="128.687" height="123.8" viewBox="0 0 128.687 123.8"><path d="M281.372,158.5l-4.384,4.386a2.935,2.935,0,0,0,4.151,4.151l12.875-12.876a2.935,2.935,0,1,0-4.15-4.151l-5.849,5.849m17.218,31.271a2.935,2.935,0,0,1-4.151-4.151L309.957,170.1a2.935,2.935,0,0,1,4.15,4.151Zm-12.31-6.913-17.09,17.091a3.611,3.611,0,0,1-5.106-5.106l17.09-17.09m10.2-20.952L309.957,170.1m-28.819-3.067,15.943,15.943m-3.762-3.761-1.218,1.218a2.2,2.2,0,0,1-3.109,0l-5.31-5.31a2.2,2.2,0,0,1,0-3.109L284.9,170.8m3.645,29.512V197.59a4.583,4.583,0,0,1,4.583-4.583h26.8a4.583,4.583,0,0,1,4.583,4.583v2.717Zm1.318-50.3V95.441L305.8,79.507h61.1v46.669M305.8,79.507V95.441H289.863m26.577,30.735h-9.916V107.543h9.916Zm16.327,0h-9.915V99.667h9.915Zm16.328,0H339.18V91.365H349.1Zm-43.3,9.6h43.3m-43.3,9.028h21.649m63.91-2.4a17.576,17.576,0,1,1-17.577-17.577A17.576,17.576,0,0,1,391.355,142.408Zm-4.382,35.5H359.624a3.422,3.422,0,0,1-3.421-3.421v-4.357a3.422,3.422,0,0,1,3.421-3.421h27.349a3.422,3.422,0,0,1,3.421,3.421v4.357A3.422,3.422,0,0,1,386.973,177.906Zm0,11.2H359.624a3.422,3.422,0,0,1-3.421-3.421v-4.356a3.422,3.422,0,0,1,3.421-3.423h27.349a3.422,3.422,0,0,1,3.421,3.423v4.356A3.422,3.422,0,0,1,386.973,189.106Zm0,11.2H359.624a3.423,3.423,0,0,1-3.421-3.423v-4.356a3.422,3.422,0,0,1,3.421-3.423h27.349a3.422,3.422,0,0,1,3.421,3.423v4.356A3.423,3.423,0,0,1,386.973,200.307ZM366.9,159.983v6.723m-52.789,11.2h42.864m10.973-31.436a6.24,6.24,0,0,0,12.073-2.213v-1.814H367.54V140.63a6.239,6.239,0,0,1,12.073-2.213m-5.835-7.145v3.119m0,16.031v3.119" transform="translate(-264.168 -78.007)" fill="none" stroke="#7fb3eb" stroke-linecap="round" stroke-linejoin="round" stroke-width="3"/></svg>