<svg xmlns="http://www.w3.org/2000/svg" width="116.374" height="119.833" viewBox="0 0 116.374 119.833"><path d="M531.522,131.347c-2.756,1.078-4.726,3.99-3.67,6.686l16.969,43.381L563,174.3a1.048,1.048,0,0,0,.263-1.8c-.235-.187-3.4-1.808-4.551-4.744a8.4,8.4,0,1,1,15.643-6.119c1.148,2.936-.078,6.277-.124,6.573a1.047,1.047,0,0,0,1.415,1.143l18.184-7.113-7.094-18.134a1.047,1.047,0,0,1,1.143-1.415c.3.046,3.637,1.272,6.573.124a8.4,8.4,0,0,0-6.119-15.643c-2.936,1.149-4.557,4.317-4.744,4.551a1.048,1.048,0,0,1-1.8-.263l-6.758-17.276,17.663-6.909a1.048,1.048,0,0,0,.264-1.8c-.235-.186-3.4-1.808-4.551-4.744a8.4,8.4,0,1,1,15.642-6.118c1.149,2.936-.078,6.277-.124,6.572a1.048,1.048,0,0,0,1.416,1.144l18.183-7.113,16.861,43.1c1.281,3.275.161,5.648-2.955,6.867l-2,.781m-41.6,16.274,28.9-11.3m5.374,20.1s3.682-2.361,4.61-4.935,4.413-14.622,4.413-14.622l-5.819-20.292s-8.128-1.7-7.323,5.536c.37,3.329,1.753,12.487,1.753,12.487-3.182,1.542-7.206,5.128-6.5,10.464m-21.833,1.172c-.481,3.167,1.326,7.864,3.718,9.507m33.748,28.343.228-17.314L594.586,180l-.394,18.3m37.545-17.039.166-8.521a1.387,1.387,0,0,0-1.334-1.413l-30.9-1.185a1.386,1.386,0,0,0-1.439,1.36l-.158,8.616m-58.083-72.155c-3.211.046-4.942,5.6-4.942,5.6l-4.341,13.585s4.892,16.509,5.94,20.337c4.655,2.509,7.292-2.054,7.136-5.278l-1.539-12.663c2.433-1.008,4.3-2.41,5.127-4.54l27.662-10.821m-4.334,1.7a11.46,11.46,0,0,0-3.8-7.343M536.334,97.961l-.141,8.177a1.753,1.753,0,0,0,1.715,1.782l30.012.628a1.752,1.752,0,0,0,1.789-1.733l.09-8.312m-36.144-19.45L533.5,98.242l39.423.7.329-20.038" transform="translate(-526.042 -78.878)" fill="none" stroke="#7fb3eb" stroke-miterlimit="10" stroke-width="3"/></svg>