<svg xmlns="http://www.w3.org/2000/svg" width="121.775" height="130.669" viewBox="0 0 121.775 130.669"><path d="M133.815,94.883v46.788m11.562,6.633V146.91a5.239,5.239,0,0,0-5.239-5.24H127.492a5.24,5.24,0,0,0-5.24,5.24V148.3m31.371,5.485a5.485,5.485,0,0,0-5.484-5.485H119.49a5.485,5.485,0,0,0-5.484,5.485v3.657h39.617ZM127.54,88.25H98.32L85.054,124.64h27.427L99.522,90.58m13.2,34.688a13.984,13.984,0,0,1-27.969,0M168.492,90.58l-12.96,34.06h27.429L169.7,88.25H140.474m42.788,37.019a13.984,13.984,0,0,1-27.969,0M133.815,81.617a6.633,6.633,0,1,0,6.633,6.633A6.633,6.633,0,0,0,133.815,81.617ZM74.456,176.261v-5.206a3.507,3.507,0,0,1,3.507-3.507H94.451a3.508,3.508,0,0,1,3.508,3.507v34.724a3.509,3.509,0,0,1-3.508,3.508H77.963a3.508,3.508,0,0,1-3.507-3.508V184.973m50.653,1.013h16.917c10.131,0,11.33-14.993-.827-14.993h-9c-6.889,0-7.8-5.267-15.9-5.267-10.131,0-11.346,8.1-18.336,8.1m0,30.189h44.067c8.51,0,16.513-4.432,19.249-6.458s20.543-14.607,27.15-19.577c10.637-8,1.62-19.856-8.308-13.271-3.445,2.285-26.136,19.147-27.352,19.856a8.028,8.028,0,0,1-4.458,1.418h-6.281M170.2,171.859c-2.287-3.653-8.116-9-15.59-3.678-3.341,2.378-6.1,4.635-6.1,4.635" transform="translate(-72.956 -80.117)" fill="none" stroke="#7fb3eb" stroke-linecap="round" stroke-linejoin="round" stroke-width="3"/></svg>