<svg xmlns="http://www.w3.org/2000/svg" width="150.871" height="129.17" viewBox="0 0 150.871 129.17"><path d="M-727.873,120.094l-19.906,47.478h39.9Zm20.343,48.391a20.344,20.344,0,0,1-20.343,20.343,20.344,20.344,0,0,1-20.344-20.343m29.763-66.376a9.42,9.42,0,0,1-9.419,9.42,9.42,9.42,0,0,1-9.42-9.42,9.42,9.42,0,0,1,9.42-9.42A9.42,9.42,0,0,1-718.454,102.109Zm-9.419,17.985v-8.565m107.183,8.565L-640.6,167.572h39.9Zm20.343,48.391a20.344,20.344,0,0,1-20.343,20.343,20.344,20.344,0,0,1-20.344-20.343m29.763-66.376a9.42,9.42,0,0,1-9.419,9.42,9.42,9.42,0,0,1-9.42-9.42,9.42,9.42,0,0,1,9.42-9.42A9.42,9.42,0,0,1-611.27,102.109Zm-9.419,17.985v-8.565m-66.328-4.1a6.086,6.086,0,0,1-6.086,6.086,6.085,6.085,0,0,1-6.085-6.086V96.773a6.084,6.084,0,0,1,6.085-6.085,6.085,6.085,0,0,1,6.086,6.085Zm12.17,3.993a6.084,6.084,0,0,1-6.085,6.085,6.085,6.085,0,0,1-6.086-6.085V92.794a6.086,6.086,0,0,1,6.086-6.086,6.085,6.085,0,0,1,6.085,6.086Zm6.086,2.093a6.086,6.086,0,0,1-6.086-6.086V88.8a6.085,6.085,0,0,1,6.086-6.085,6.085,6.085,0,0,1,6.086,6.085v15.537m.167-10.222a6.085,6.085,0,0,1,6.085-6.086,6.086,6.086,0,0,1,6.086,6.086v12.411m-3.543,22.007V119.2c-9.544,0-14.661-5-14.661-12.671h27.509v19.19a20.592,20.592,0,0,1-6.18,14.707l-10.326,10.117h-31.854c-4.751-1.668-9.794-7.586-9.794-17.507v-25.6m-21.03-10.8h21.03m-20.321,9.893h20.321m69.971-9.893h-21.03m20.321,9.893h-20.321m-7.3,44.015v6.2h-31.844v-6.2m-5.418,46.19V156.743h5.418m31.844,0h4.752v39.989m-55.434,11.922v-4.063a5.943,5.943,0,0,1,5.943-5.943h56.014a5.943,5.943,0,0,1,5.943,5.943v4.3Z" transform="translate(749.717 -81.217)" fill="none" stroke="#7fb3eb" stroke-linecap="round" stroke-linejoin="round" stroke-width="3"/></svg>