<svg xmlns="http://www.w3.org/2000/svg" width="103.072" height="132.465" viewBox="0 0 103.072 132.465"><path d="M405.594,180.422v-4.385a2.955,2.955,0,0,1,2.955-2.955h13.892a2.955,2.955,0,0,1,2.955,2.955v29.254a2.955,2.955,0,0,1-2.955,2.955H408.549a2.955,2.955,0,0,1-2.955-2.955V187.762m42.676.853h14.254c8.535,0,9.546-12.632-.7-12.632h-7.582c-5.8,0-6.572-4.438-13.4-4.438-8.536,0-9.56,6.828-15.449,6.828m0,25.435h37.128c7.169,0,13.912-3.734,16.216-5.441s17.309-12.306,22.875-16.495c8.962-6.742,1.366-16.729-7-11.182-2.9,1.925-22.021,16.133-23.045,16.73a6.765,6.765,0,0,1-3.755,1.194h-5.291m23.739-11.9c-1.927-3.078-6.837-7.58-13.135-3.1-2.815,2-5.142,3.9-5.142,3.9m-13.054-42.278c-10.659-13.985-24.629-18.26-39.8-17.071,0,0,2.988,44.356,43.7,42.79,47.342-1.821,46.432-54.625,36.871-64.186-27.539,1.138-50.156,31.393-36.871,63.9m-31.41-30.674c7.167,13.25,16.947,23.3,30.606,28.59m3.234,2.222q21.164-15.832,25.338-49.7m4.866-14.34a39.143,39.143,0,0,0-68.906,5.7m-1.545,4.267A39.151,39.151,0,0,0,419.4,117.91m25.279-36.6s1.975,5.57,4.024,6.708,7.739,2.048,10.015,1.934,5.121-1.707,6.487-2.731,3.755-6.372,3.755-6.372m20.832,13.537s-10.932.108-13.663,0-5.007,2.509-7.169,5.354-2.6,11.38-2.6,11.38M444.265,125s7.172-6.831,8.651-10.36a15.844,15.844,0,0,0-1.024-12.632c-2.048-3.414-8.763-2.163-10.6-3.073s-3.166-5.462-4.873-6.714-6.761-.716-6.761-.716" transform="translate(-404.094 -77.281)" fill="none" stroke="#7fb3eb" stroke-linecap="round" stroke-linejoin="round" stroke-width="3"/></svg>