<svg xmlns="http://www.w3.org/2000/svg" width="144.141" height="143.49" viewBox="0 0 144.141 143.49"><path d="M456.2,426.486a6.227,6.227,0,1,0,0-12.453H327.51a6.227,6.227,0,0,0,0,12.453Zm-49.065-96.664H376.62a2.558,2.558,0,0,1-2.547-2.8l2.479-25.864a2.559,2.559,0,0,1,2.547-2.314h25.554a2.558,2.558,0,0,1,2.546,2.314l2.479,25.864A2.558,2.558,0,0,1,407.132,329.822ZM397.723,303.1V291.9a5.909,5.909,0,1,0-11.817,0v11.2m25.38,8.932h20.287a5.341,5.341,0,0,1,5.341,5.34v17.936L459.1,355.36H324.689l22.09-20.052V317.371a5.341,5.341,0,0,1,5.34-5.34h23.123m-32.381,44.129v3.446a9.79,9.79,0,1,1-19.58,0v-3.446m19.58,0v3.446a9.79,9.79,0,1,0,19.581,0v-3.446m0,0v3.446a9.79,9.79,0,1,0,19.58,0v-3.446m0,0v3.446a9.79,9.79,0,1,0,19.581,0v-3.446m0,0v3.446a9.79,9.79,0,1,0,19.58,0v-3.446m0,0v3.446a9.79,9.79,0,1,0,19.581,0v-3.446m0,0v3.446a9.79,9.79,0,1,0,19.58,0v-3.446M346.779,335.308h90.134m-81.035,0-13.018,20.853m22.525-20.853-2.944,20.853m19.067-20.853.514,20.853m58.742,0-13.018-20.853m-6.563,20.853-2.944-20.853m-16.123,0-.514,20.853M333.071,369.4v44.635M450.554,369.4v44.635M372.3,401.5H342.932V379.266H372.3Zm68.474-22.238H411.406V401.5h29.371Zm-38.618,34.766V379.266H381.55v34.766" transform="translate(-319.784 -284.495)" fill="none" stroke="#7fb3eb" stroke-linecap="round" stroke-linejoin="round" stroke-miterlimit="10" stroke-width="3"/></svg>