<svg xmlns="http://www.w3.org/2000/svg" width="135" height="130.051" viewBox="0 0 135 130.051"><path d="M361.676,106.492v14.224a16.228,16.228,0,0,1-32.457,0V106.492c9.53.712,19.355-1.337,25.6-7.756C354.815,102.748,359.006,106.492,361.676,106.492Zm5.25,2.546v-6.532a21.919,21.919,0,0,0-43.838,0v7.2m6.131-1.638h-1.381a6.543,6.543,0,0,0,0,13.086h1.443m32.457,0h1.381a6.543,6.543,0,0,0,0-13.086h-1.443M336,133.905v7.4l-21.906,8.585a17.082,17.082,0,0,0-10.85,15.9v41.846h22.733m42.723,0h-38.71m24.9-73.734v7.4l21.906,8.585A17.079,17.079,0,0,1,386.867,160.7m-68.512,6.408v40.526M336,141.3l9.45,11.233,9.439-11.233M326.316,145.1l11.934,15.818,7.2-8.38m-.033,0,7.2,8.38L364.548,145.1M340.4,158.409l2.956,5.361h4.177l2.956-5.361m-7.133,5.361L336,196.71l9.45,9.9,9.456-9.9-7.368-32.94m44.286.593V158.8a2.921,2.921,0,0,1,2.921-2.92h17.882a2.92,2.92,0,0,1,2.921,2.92v5.563m19.7,39.447V168.191a3.829,3.829,0,0,0-3.829-3.829H376.1a3.829,3.829,0,0,0-3.829,3.829V203.81a3.829,3.829,0,0,0,3.829,3.829h55.315A3.829,3.829,0,0,0,435.243,203.81Zm-27.474-20.968h23.638a3.836,3.836,0,0,0,3.836-3.836v-.841m-62.973,0v.841a3.835,3.835,0,0,0,3.835,3.836h23.59m8.113,5.26v-7.095a.5.5,0,0,0-.5-.5h-7.095a.5.5,0,0,0-.505.5V188.1a.505.505,0,0,0,.505.505H407.3A.5.5,0,0,0,407.808,188.1Z" transform="translate(-301.743 -79.088)" fill="none" stroke="#7fb3eb" stroke-linecap="round" stroke-linejoin="round" stroke-width="3"/></svg>