<svg xmlns="http://www.w3.org/2000/svg" width="104.5" height="123.509" viewBox="0 0 104.5 123.509"><path d="M445.122,353.334V298.913h-4.856a1.076,1.076,0,0,1-.666-1.92l44.285-34.913,44.285,34.913a1.076,1.076,0,0,1-.666,1.92h-4.856v23m0,31.418v-25.91m0-28.511-38.763-30.45-38.763,30.45m57.482,0H464.912v37.692H502.6Zm-18.719,0v37.692m18.846-18.846H465.039m54.549-27.874V268.463H507.436v12.184m-71.087,72.687h95.684M449.6,240.548l-4.667,3.676a2.811,2.811,0,0,0,3.479,4.417l13.7-10.792a2.811,2.811,0,0,0-3.479-4.417l-6.224,4.9m12.844,31.691a2.812,2.812,0,0,1-3.479-4.418l13.7-10.792a2.812,2.812,0,1,1,3.48,4.417Zm-10.928-7.966-18.187,14.325a3.459,3.459,0,0,1-4.28-5.434l18.187-14.325m25.43-1.81-13.363-16.966m-13.7,10.792,13.364,16.966m-3.153-4-1.3,1.021a2.1,2.1,0,0,1-2.957-.351l-4.451-5.651a2.106,2.106,0,0,1,.351-2.958l1.3-1.021" transform="translate(-429.033 -231.325)" fill="none" stroke="#7fb3eb" stroke-linecap="round" stroke-linejoin="round" stroke-width="3"/></svg>