<svg xmlns="http://www.w3.org/2000/svg" width="114.788" height="115.163" viewBox="0 0 114.788 115.163"><path d="M509.962,150.962v20.673l-19.631,19.632H402.176V184.39m107.786-38.763V79.1H423.683V92.775m0,25.092V98.444m86.279,72.941H490.331v19.882m-5.169-71.222,7.6-7.6-7.6-7.6V94.109H474.419l-7.6-7.6-7.6,7.6H448.483v10.743l-7.6,7.6,7.6,7.6v10.743h10.743l7.6,7.6,7.6-7.6h10.743ZM466.823,99.111a13.338,13.338,0,1,0,13.338,13.338A13.337,13.337,0,0,0,466.823,99.111Zm-6.044,13.338,4.5,4.334,7.335-7.5m-20.34,38.346h29.677m-23.175,23.487h9.5m4.168,0h3m-25.842-7.829H484.62m-37.846-7.829h40.681m-37.846,19.049a5.371,5.371,0,0,0-5.371-5.37H403.545a5.371,5.371,0,0,0-5.371,5.37v10.01h51.435Zm-3.778,10.01v6.752m-9-22.883v-6.5H410.95v6.5m19.819-6.5c-.339-9.461,1.592-20.557,4.543-32.386a11.629,11.629,0,0,0-23.258,0c2.951,11.829,4.883,22.925,4.543,32.386" transform="translate(-396.674 -77.604)" fill="none" stroke="#7fb3eb" stroke-linecap="round" stroke-linejoin="round" stroke-width="3"/></svg>