<svg xmlns="http://www.w3.org/2000/svg" width="125.834" height="123.621" viewBox="0 0 125.834 123.621"><path d="M622.9,429.891V449.76a3.349,3.349,0,0,1-3.35,3.35H603.808a3.349,3.349,0,0,1-3.35-3.35V416.6a3.349,3.349,0,0,1,3.35-3.35h15.745a3.349,3.349,0,0,1,3.35,3.35v4.97m-22.445-2.321c-6.675,0-7.836-7.74-17.511-7.74-7.74,0-8.61,5.031-15.188,5.031h-8.595c-11.609,0-10.465,14.318-.791,14.318h16.156m-16.156,0h-6a7.663,7.663,0,0,1-4.257-1.354c-1.161-.678-22.832-16.78-26.122-18.962-9.48-6.288-18.091,5.03-7.933,12.673,6.309,4.748,23.315,16.762,25.927,18.7s10.255,6.167,18.381,6.167h42.084m-48.275-29.8s-2.638-2.156-5.828-4.427c-7.138-5.079-12.7.025-14.888,3.513m-31.4-61.662V335.838a3.349,3.349,0,0,1,3.35-3.349h15.745a3.349,3.349,0,0,1,3.35,3.349V369a3.349,3.349,0,0,1-3.35,3.35H503.419a3.349,3.349,0,0,1-3.35-3.35v-4.97m74.541-12.747c-2.319-2.485-8.411-13.762-24.8-13.762H522.514m0,28.83c6.675,0,7.837,7.74,17.511,7.74,7.74,0,8.61-5.031,15.188-5.031h8.595c11.609,0,10.465-14.318.791-14.318H548.97a1.621,1.621,0,0,1-1.621-1.62h0a1.621,1.621,0,0,1,1.621-1.62h64.874v44.488h-82.2v-23.64m31.812-3.292a16.961,16.961,0,0,0-.566,4.382c0,7.4,4.628,13.392,10.337,13.392s10.336-6,10.336-13.392-4.628-13.393-10.336-13.393m29.555-6.311a8.849,8.849,0,0,0,8.849,8.849m0,22.5a8.849,8.849,0,0,0-8.849,8.849m-60.585,0a8.848,8.848,0,0,0-8.849-8.849" transform="translate(-498.569 -330.989)" fill="none" stroke="#7fb3eb" stroke-linecap="round" stroke-linejoin="round" stroke-width="3"/></svg>