<svg xmlns="http://www.w3.org/2000/svg" width="547.385" height="70.356" viewBox="0 0 547.385 70.356">
  <g id="Grupo_76" data-name="Grupo 76" transform="translate(-282.967 -121)">
    <g id="Grupo_18" data-name="Grupo 18" transform="translate(-468 275)">
      <g id="Grupo_5" data-name="Grupo 5" transform="translate(750.967 -154)">
        <g id="Grupo_2" data-name="Grupo 2">
          <g id="Grupo_1" data-name="Grupo 1">
            <path id="Caminho_1" data-name="Caminho 1" d="M-963.952,39.574h-9.255V91.71q0,6.135,1.351,8.275t5.252,2.141v1.966h-21.579v-1.966q4.026,0,5.47-2.459t1.445-8.3V39.574h-8.861q-6.36,0-9.253,2.255t-3.257,7.457h-1.768V33.735h1.768q2.446,2.544,9.162,2.543h32.01q6.922,0,9.682-2.543h1.924V49.286h-1.2q-1.144-5.607-4.082-7.66T-963.952,39.574Z" transform="translate(1004.406 -33.735)" fill="#1a5088"/>
          </g>
        </g>
        <g id="Grupo_3" data-name="Grupo 3" transform="translate(45.151 2.543)">
          <path id="Caminho_2" data-name="Caminho 2" d="M-876.4,37.662H-862v1.966q-6.864.173-6.864,9.018,0,.752.052,1.561l3.068,41.8q.519,6.683,2.054,8.89t5.538,2.614v1.966H-880.1v-1.966a7.567,7.567,0,0,0,4.924-2.558q1.433-1.919,1.433-5.873,0-.813-.052-1.8l-3.263-43.855-20.9,56.054h-1.6l-20.62-55.922-3.43,41.7q-.053.981-.052,1.853,0,8.773,7.937,10.4v1.966h-18.979v-1.966a7.784,7.784,0,0,0,5.486-2.98q1.69-2.395,2.314-9.507l3.692-46.654a13.21,13.21,0,0,0-7.956-4.74V37.662h15.453l19.516,53.36Z" transform="translate(934.694 -37.662)" fill="#5e7c86"/>
        </g>
        <g id="Grupo_4" data-name="Grupo 4" transform="translate(39.607 2.543)" style="mix-blend-mode: multiply;isolation: isolate">
          <path id="Caminho_3" data-name="Caminho 3" d="M-923.34,74.083h-4.94V92.735q0,6.024,1.534,8.4t5.433,2.374v1.966h-21.943v-1.966q4.056,0,5.486-2.372t1.43-8.391V50.217q0-6.018-1.4-8.3t-5.512-2.286V37.662h25.011q9.255,0,14.793,5a16.416,16.416,0,0,1,5.538,12.747q0,12.488-12.583,16.65a25.817,25.817,0,0,1,5.4,5.4,90.71,90.71,0,0,1,6.9,11.43q4.787,8.861,7.482,11.622a8.881,8.881,0,0,0,5.595,2.992v1.966H-897.6a134.278,134.278,0,0,1-9.308-15.114q-5.824-10.485-9.125-13.381A10.826,10.826,0,0,0-923.34,74.083Zm1.456-33.82h-6.4V71.25h7.488q6.707,0,10.529-4.278t3.822-11.331a15.071,15.071,0,0,0-4.238-11.129Q-914.917,40.264-921.884,40.264Z" transform="translate(943.255 -37.662)" fill="#395644"/>
        </g>
        <circle id="Elipse_1" data-name="Elipse 1" cx="8.804" cy="8.804" r="8.804" transform="translate(115.425 5.245)" fill="#5e7c86"/>
      </g>
    </g>
    <path id="Caminho_146" data-name="Caminho 146" d="M8.906-8.613q0,4.321-.146,6.387a3.144,3.144,0,0,1-.205,1.084A1,1,0,0,1,7.9-.571a3.97,3.97,0,0,1-1.084.117q-.513,0-.483.249,0,.293.6.293Q9.214.029,10.708,0l4.717.088q.527,0,.571-.293,0-.249-.483-.249a9.913,9.913,0,0,1-1.538-.117,1.069,1.069,0,0,1-.864-.571,2.724,2.724,0,0,1-.308-1.04q-.176-2.109-.146-6.431V-20.9l3.779.088a6.03,6.03,0,0,1,2.769.542,1.385,1.385,0,0,1,.776,1.128l.029.337q0,.63.322.6.249,0,.278-.483.059-1.86.088-3.472,0-.63-.234-.63a9.368,9.368,0,0,1-2.886.293H5.7a29.317,29.317,0,0,1-3-.146,2.217,2.217,0,0,1-.806-.205,1.071,1.071,0,0,0-.483-.161q-.234,0-.352.571Q1-22.134.718-20.815q-.088.6-.176,1.113a3.592,3.592,0,0,0-.117.718q-.029.469.264.469t.337-.352a4.294,4.294,0,0,1,.5-1.055,1.827,1.827,0,0,1,1-.688,10.6,10.6,0,0,1,1.919-.176L8.906-20.9Zm24,.879a.311.311,0,0,1,.308.205l2.4,6.357q.146.571-.278.688-.41.029-.41.278.029.234.894.234,3.838.059,5.669.059A4.881,4.881,0,0,0,42.628,0q.234-.029.234-.205,0-.249-.381-.249a7.557,7.557,0,0,1-1.26-.117,2.579,2.579,0,0,1-1.113-.688,8.926,8.926,0,0,1-1.538-2.578q-4.614-11.4-7.427-18.457-.4-.952-.762-.952-.352-.029-.835,1.2L22.018-3.208a10.545,10.545,0,0,1-.425.981,3.117,3.117,0,0,1-.527.85,2.381,2.381,0,0,1-1.6.864,7.2,7.2,0,0,1-.923.059q-.366,0-.366.249,0,.293.571.293,2.7-.059,3.53-.088,1.567.029,3.193.088.5,0,.5-.293Q26-.454,25.533-.454h-.454a1.253,1.253,0,0,1-.937-.293.829.829,0,0,1-.264-.63,5.727,5.727,0,0,1,.454-1.831L25.944-7.5a.269.269,0,0,1,.278-.234ZM26.822-9.243q-.19,0-.117-.205l2.754-7.383q.059-.234.176-.264.117.029.146.264l2.71,7.412q.059.176-.146.176Zm8.232-19.922q-.161-.352-.425-.352a1.685,1.685,0,0,0-.6.264q-.513.337-2.124,1.567-1.655,1.26-2.71,2.212-.264.22-.264.4.029.176.176.176a1.488,1.488,0,0,0,.513-.234,20.382,20.382,0,0,1,2.4-1.055,13.151,13.151,0,0,1,2.725-.718,8.013,8.013,0,0,1,1.025,0q.322.029.146-.454A17.05,17.05,0,0,0,35.055-29.165ZM49.617-1.318A9.048,9.048,0,0,0,50.276.088q.205.425.469.425.308,0,.571-.483t.82-1.743q1.04-2.432,3.984-9.141,2.124-4.717,3.6-8.13a15.9,15.9,0,0,1,1.011-2.007,2.443,2.443,0,0,1,.63-.7,2.174,2.174,0,0,1,.85-.322q.41-.029.63-.029.469.029.469-.278-.029-.264-.63-.264-.718,0-1.523.029-.835.059-1.289.059-.747-.059-3.149-.088-.835,0-.835.293.029.278.5.249a4.819,4.819,0,0,1,1.2.146.592.592,0,0,1,.4.571,4,4,0,0,1-.278,1.113q-2.52,6.475-5.9,14.941h-.117L46.526-18.9a7.538,7.538,0,0,1-.7-2.314.7.7,0,0,1,.308-.63,2.742,2.742,0,0,1,1.172-.205q.41.029.454-.278-.044-.264-.7-.264-2.388.059-3.677.088-1.772-.059-4.351-.088a4.421,4.421,0,0,0-.542.029q-.249.059-.249.234,0,.278.366.278a8.051,8.051,0,0,1,1.172.117,3.049,3.049,0,0,1,1.318.6,4.653,4.653,0,0,1,.952,1.685ZM74.154.513q5.786-.088,9.082-3.6a12.149,12.149,0,0,0,3.34-8.7q-.249-10.972-12.129-11.221-6.68.117-9.536,3.94a12.426,12.426,0,0,0-2.842,7.822,12.443,12.443,0,0,0,2.812,7.866Q67.767.4,74.154.513ZM75.414-1a8.1,8.1,0,0,1-6.753-3.267,12.382,12.382,0,0,1-2.461-7.91,13.4,13.4,0,0,1,.688-4.658,7.089,7.089,0,0,1,1.743-2.842,5.974,5.974,0,0,1,2.4-1.509,8.963,8.963,0,0,1,2.549-.381,8.036,8.036,0,0,1,6.27,2.9q2.461,2.886,2.52,7.983A14.821,14.821,0,0,1,81.6-5.552a7.281,7.281,0,0,1-1.89,2.944,6.413,6.413,0,0,1-2.314,1.289A7.449,7.449,0,0,1,75.414-1ZM91.645-8.613q0,4.321-.146,6.387a3.288,3.288,0,0,1-.249,1.084.883.883,0,0,1-.63.571,3.874,3.874,0,0,1-1.084.117q-.5,0-.469.249,0,.293.6.293Q91.968.029,93.33,0q1.216.029,4.409.088.6,0,.6-.293,0-.249-.366-.249a10.255,10.255,0,0,1-1.465-.117,1.111,1.111,0,0,1-.879-.571,2.651,2.651,0,0,1-.293-1.084q-.19-2.065-.161-6.416v-.41a.22.22,0,0,1,.249-.249l2.607.059a.706.706,0,0,1,.542.22,18.719,18.719,0,0,1,1.2,1.582q.835,1.23,1.772,2.549a14.106,14.106,0,0,0,4.1,4.409,4.088,4.088,0,0,0,1.289.425,9.724,9.724,0,0,0,1.919.146h2.856q.571,0,.571-.293,0-.249-.366-.249a4.764,4.764,0,0,1-.835-.088,6.73,6.73,0,0,1-1.2-.425,7.663,7.663,0,0,1-2.168-1.611q-2.578-2.827-6.5-7.9a12.424,12.424,0,0,0,3.149-3.472,6.654,6.654,0,0,0,.806-3.237,5.207,5.207,0,0,0-.688-2.651A4.524,4.524,0,0,0,103.13-21.3a6.751,6.751,0,0,0-2.637-1.084,19.975,19.975,0,0,0-2.886-.205q-2.036.059-4.219.088-1.318-.059-4.116-.088-.659,0-.659.264,0,.308.513.278a6.369,6.369,0,0,1,1.172.088,1.361,1.361,0,0,1,1.011.542,2.342,2.342,0,0,1,.278,1.172q.059.469.059,6.357Zm3.53-12.026a.351.351,0,0,1,.278-.425,7.243,7.243,0,0,1,1.582-.117,5.124,5.124,0,0,1,1.509.249,4.148,4.148,0,0,1,1.465.894,4.176,4.176,0,0,1,1.2,1.685,7.122,7.122,0,0,1,.425,2.666,7.178,7.178,0,0,1-.542,2.915,3.761,3.761,0,0,1-1.23,1.582,2.341,2.341,0,0,1-.776.4,6.016,6.016,0,0,1-1.348.117,8.131,8.131,0,0,1-2.285-.308q-.308-.088-.278-.527Zm25.8,12.905a.311.311,0,0,1,.308.205l2.4,6.357q.146.571-.278.688-.41.029-.41.278.029.234.894.234,3.838.059,5.669.059A4.881,4.881,0,0,0,130.7,0q.234-.029.234-.205,0-.249-.381-.249a7.557,7.557,0,0,1-1.26-.117,2.579,2.579,0,0,1-1.113-.688,8.926,8.926,0,0,1-1.538-2.578q-4.614-11.4-7.427-18.457-.4-.952-.762-.952-.352-.029-.835,1.2L110.089-3.208a10.545,10.545,0,0,1-.425.981,3.117,3.117,0,0,1-.527.85,2.381,2.381,0,0,1-1.6.864,7.2,7.2,0,0,1-.923.059q-.366,0-.366.249,0,.293.571.293,2.7-.059,3.53-.088,1.567.029,3.193.088.5,0,.5-.293.029-.249-.439-.249h-.454a1.253,1.253,0,0,1-.937-.293.829.829,0,0,1-.264-.63,5.727,5.727,0,0,1,.454-1.831L114.015-7.5a.269.269,0,0,1,.278-.234Zm-6.079-1.509q-.19,0-.117-.205l2.754-7.383q.059-.234.176-.264.117.029.146.264l2.71,7.412q.059.176-.146.176ZM129.88-2.124q0,.117.234.293.19.205.425.513a2.684,2.684,0,0,1,.425.688A3.1,3.1,0,0,1,131.14.483a5.88,5.88,0,0,1-.864,2.607.875.875,0,0,0-.249.513q.029.264.249.293a.844.844,0,0,0,.5-.352,14.913,14.913,0,0,0,1.45-2.139,12.814,12.814,0,0,0,.923-1.86,4.45,4.45,0,0,0,.4-1.436,2.409,2.409,0,0,0-.117-.659,3.167,3.167,0,0,0-.542-.908q-.278-.439-.4-.63a.545.545,0,0,0-.352-.117,2.464,2.464,0,0,0-1.45.63A1.872,1.872,0,0,0,129.88-2.124Zm17.1-6.489q0,4.321-.146,6.387a3.288,3.288,0,0,1-.249,1.084.883.883,0,0,1-.63.571,3.874,3.874,0,0,1-1.084.117q-.5,0-.469.249,0,.293.6.293Q147.3.029,148.662,0q1.216.029,4.409.088.6,0,.6-.293,0-.249-.366-.249a10.255,10.255,0,0,1-1.465-.117,1.111,1.111,0,0,1-.879-.571,2.651,2.651,0,0,1-.293-1.084q-.19-2.065-.161-6.416v-.41a.22.22,0,0,1,.249-.249l2.607.059a.706.706,0,0,1,.542.22,18.719,18.719,0,0,1,1.2,1.582q.835,1.23,1.772,2.549a14.106,14.106,0,0,0,4.1,4.409,4.088,4.088,0,0,0,1.289.425,9.724,9.724,0,0,0,1.919.146h2.856q.571,0,.571-.293,0-.249-.366-.249a4.764,4.764,0,0,1-.835-.088,6.73,6.73,0,0,1-1.2-.425,7.663,7.663,0,0,1-2.168-1.611q-2.578-2.827-6.5-7.9a12.424,12.424,0,0,0,3.149-3.472,6.654,6.654,0,0,0,.806-3.237,5.207,5.207,0,0,0-.688-2.651,4.524,4.524,0,0,0-1.348-1.465,6.751,6.751,0,0,0-2.637-1.084,19.975,19.975,0,0,0-2.886-.205q-2.036.059-4.219.088-1.318-.059-4.116-.088-.659,0-.659.264,0,.308.513.278a6.369,6.369,0,0,1,1.172.088,1.361,1.361,0,0,1,1.011.542,2.342,2.342,0,0,1,.278,1.172q.059.469.059,6.357Zm3.53-12.026a.351.351,0,0,1,.278-.425,7.243,7.243,0,0,1,1.582-.117,5.124,5.124,0,0,1,1.509.249,4.148,4.148,0,0,1,1.465.894,4.176,4.176,0,0,1,1.2,1.685,7.122,7.122,0,0,1,.425,2.666,7.178,7.178,0,0,1-.542,2.915,3.761,3.761,0,0,1-1.23,1.582,2.341,2.341,0,0,1-.776.4,6.016,6.016,0,0,1-1.348.117,8.131,8.131,0,0,1-2.285-.308q-.308-.088-.278-.527ZM166.988-9.507a13.467,13.467,0,0,0,.776,5.068,7.312,7.312,0,0,0,1.89,2.886A7.959,7.959,0,0,0,173.228.205a15.828,15.828,0,0,0,3.091.308,11.677,11.677,0,0,0,3.062-.425,8.53,8.53,0,0,0,3.179-1.743,7.771,7.771,0,0,0,2.388-4.1,23.5,23.5,0,0,0,.454-4.922v-3.208q0-3.3.029-4.526,0-1.23.029-1.831a2.361,2.361,0,0,1,.308-1.23,1.06,1.06,0,0,1,.806-.483,4.553,4.553,0,0,1,.864-.088q.542.029.542-.278,0-.264-.63-.264-.923,0-1.978.029-1.113.059-1.436.059-.6-.059-3.457-.088-.63,0-.63.264,0,.308.513.278a6.089,6.089,0,0,1,1.084.088,1.361,1.361,0,0,1,1.011.542,2.342,2.342,0,0,1,.278,1.172q.059.469.059,6.357v3.75a31.765,31.765,0,0,1-.205,4.233A5.737,5.737,0,0,1,181.051-2.7a5.2,5.2,0,0,1-2.007,1.23,6.561,6.561,0,0,1-2.124.381,6.467,6.467,0,0,1-.82-.059,5.468,5.468,0,0,1-.923-.146,4.3,4.3,0,0,1-.967-.4,6.423,6.423,0,0,1-1.04-.63,5.338,5.338,0,0,1-1.685-2.549,13.545,13.545,0,0,1-.659-4.819v-4.2q0-3.3.029-4.526,0-1.23.029-1.831a2.472,2.472,0,0,1,.293-1.23,1.107,1.107,0,0,1,.82-.483,4.4,4.4,0,0,1,.864-.088q.483.029.483-.278,0-.264-.659-.264-2.095.059-3.691.088-1.685-.059-4.38-.088-.659,0-.659.264,0,.308.513.278a6.369,6.369,0,0,1,1.172.088,1.361,1.361,0,0,1,1.011.542,2.342,2.342,0,0,1,.278,1.172q.059.469.059,6.357Zm25.651.894q0,4.321-.146,6.387a3.288,3.288,0,0,1-.249,1.084.883.883,0,0,1-.63.571,3.874,3.874,0,0,1-1.084.117q-.5,0-.469.249,0,.293.6.293Q192.932.029,194.44,0q2.3.088,4.351.176,4.131-.059,6.079-2.095a6.158,6.158,0,0,0,1.919-4.438A5.769,5.769,0,0,0,205-10.62a8.906,8.906,0,0,0-3.662-2.212,10.939,10.939,0,0,0,2.183-2.227,5.368,5.368,0,0,0,.879-3.032,4.415,4.415,0,0,0-1.143-2.871,4.955,4.955,0,0,0-1.919-1.172,11.425,11.425,0,0,0-3.34-.454q-1.494.059-3.647.088-1.289-.059-4.087-.088-.659,0-.659.264,0,.308.513.278a6.369,6.369,0,0,1,1.172.088,1.361,1.361,0,0,1,1.011.542,2.342,2.342,0,0,1,.278,1.172q.059.469.059,6.357Zm3.6-12.173q-.029-.454.264-.513a7.39,7.39,0,0,1,1-.059,3.276,3.276,0,0,1,1.7.425,3.7,3.7,0,0,1,1.172,1.128,5.864,5.864,0,0,1,.879,3.091,3.892,3.892,0,0,1-1.23,3.179,3.247,3.247,0,0,1-2.168.571,7.522,7.522,0,0,1-1.406-.088q-.205,0-.205-.322Zm6.87,15.776a4.171,4.171,0,0,1-.366,1.89,3.434,3.434,0,0,1-.937,1.2,3.872,3.872,0,0,1-1.157.571,4.377,4.377,0,0,1-1.172.176,6.667,6.667,0,0,1-2.2-.352,1.355,1.355,0,0,1-.864-.879,6.325,6.325,0,0,1-.176-2.007v-7.1q0-.22.176-.22.571,0,1.289.029a6.288,6.288,0,0,1,1.465.19,3.193,3.193,0,0,1,1.025.527,6.658,6.658,0,0,1,2.344,2.856A9.765,9.765,0,0,1,203.112-5.01Zm9.537-3.6q0,4.5-.146,6.548-.059,1.318-.879,1.494a3.874,3.874,0,0,1-1.084.117q-.5,0-.469.249,0,.293.6.293Q212.943.029,214.451,0q1.465.029,4.673.088.542,0,.571-.293,0-.249-.483-.249a9.816,9.816,0,0,1-1.523-.117,1.065,1.065,0,0,1-.879-.513,2.319,2.319,0,0,1-.322-.952q-.146-2.08-.117-6.577v-5.273q0-3.3.029-4.526,0-1.23.029-1.831a2.472,2.472,0,0,1,.293-1.23,1.107,1.107,0,0,1,.82-.483,5.2,5.2,0,0,1,.894-.088q.483.029.483-.308-.029-.234-.63-.234-2.139.059-3.662.088-1.743-.059-3.9-.088-.718,0-.718.234,0,.337.469.308a4.853,4.853,0,0,1,1.084.117q.967.176,1.025,1.685.059.469.059,6.357Zm13.712-7.969h.088q1.538,1.758,7.148,7.559,5.332,5.361,8.848,8.818a4.163,4.163,0,0,0,.542.41.661.661,0,0,0,.469.249q.4,0,.4-.937l.322-18.926a5.227,5.227,0,0,1,.278-1.831,1.086,1.086,0,0,1,.835-.718,5.447,5.447,0,0,1,.908-.088q.527,0,.527-.278-.029-.293-.688-.264-1.1,0-1.89.029-.776.059-1.04.059-1.113-.059-3.633-.088a4.421,4.421,0,0,0-.542.029q-.234.059-.234.234-.029.278.469.278a5.6,5.6,0,0,1,1.6.176,1.318,1.318,0,0,1,.806.747,6.19,6.19,0,0,1,.22,1.948L242.079-5.7h-.146q-.542-.542-2.7-2.856-2.2-2.271-3.911-3.984-7.646-7.793-9.3-9.624a6.786,6.786,0,0,0-.586-.688.729.729,0,0,0-.513-.249q-.425.029-.4,1.025l-.264,17.754a12.784,12.784,0,0,1-.161,2.725q-.205.85-.776,1a6.466,6.466,0,0,1-1.348.146q-.483,0-.483.249,0,.322.659.293Q224.736.029,225.395,0q.85.029,3.721.088.659,0,.7-.293,0-.249-.513-.249a4.914,4.914,0,0,1-1.567-.205,1.276,1.276,0,0,1-.718-.864,9.2,9.2,0,0,1-.322-2.461ZM256.833-6.123a6.281,6.281,0,0,0,.41,2.109,6.7,6.7,0,0,0,1.362,2.153,7.448,7.448,0,0,0,1.128.894,7.047,7.047,0,0,0,1.45.791,10.92,10.92,0,0,0,3.984.688,9.8,9.8,0,0,0,2.725-.337,9.907,9.907,0,0,0,2.021-.718,10,10,0,0,0,1.436-.894q.571-.454.923-.791h0a10.537,10.537,0,0,0,3.252,1.89,13.782,13.782,0,0,0,3.838.425h2.3A2.163,2.163,0,0,0,282.394,0q.176-.059.176-.176,0-.308-.425-.278a7.487,7.487,0,0,1-3.208-1.04q-.571-.366-1.626-1.055-1.011-.688-2.549-1.89a11.15,11.15,0,0,0,2.944-7.1.462.462,0,0,0-.264-.425,1.9,1.9,0,0,0-.762-.176q-2.52-.22-3.589-.22-.454,0-.483.308.029.234.366.234a5.72,5.72,0,0,1,.776.059,1.56,1.56,0,0,1,.688.4,1.36,1.36,0,0,1,.483.63,3.071,3.071,0,0,1,.088.747,8.239,8.239,0,0,1-.483,2.637,9.08,9.08,0,0,1-.967,1.978h0q-.557-.557-2.417-2.271-1.89-1.743-2.856-2.739-1.89-2.007-3.354-3.9a6.318,6.318,0,0,1-1.626-3.984,3.375,3.375,0,0,1,.366-1.655,2.937,2.937,0,0,1,.806-1.04,3.5,3.5,0,0,1,1.055-.571,3.176,3.176,0,0,1,.981-.161,4.989,4.989,0,0,1,2.109.4,3.313,3.313,0,0,1,1.23.967,4,4,0,0,1,.718,1.23,6.212,6.212,0,0,1,.146,1.289q-.029.6.205.557a.293.293,0,0,0,.249-.117.664.664,0,0,0,.117-.381,27.442,27.442,0,0,0,.322-3.838,1.77,1.77,0,0,0-.059-.483q-.059-.19-.439-.308a9.3,9.3,0,0,0-3.633-.63q-3.867.059-5.61,1.86a5.489,5.489,0,0,0-1.26,1.772,4.678,4.678,0,0,0-.425,1.89,6.233,6.233,0,0,0,.337,1.978,7.637,7.637,0,0,0,1.2,2.285,9.27,9.27,0,0,0-3.091,2.549,7.126,7.126,0,0,0-1.26,2.036A5.929,5.929,0,0,0,256.833-6.123Zm9.36,4.746a5.469,5.469,0,0,1-4.058-1.685,6.1,6.1,0,0,1-1.7-4.468,5.676,5.676,0,0,1,.659-2.915,4.962,4.962,0,0,1,1.406-1.641h0q.483.63,1.523,1.831t1.685,1.919q1.978,2.065,5.405,5.156a6.012,6.012,0,0,1-1.8,1.113A7.168,7.168,0,0,1,266.193-1.377Zm23.454-1.538a4.63,4.63,0,0,1-.337,1.479,1.4,1.4,0,0,1-.894.894,3.456,3.456,0,0,1-.908.088q-.469,0-.469.22.029.322.542.322Q289.34.029,290.541,0l3.149.088q.688,0,.718-.322-.029-.22-.439-.22a7.521,7.521,0,0,1-1.26-.146.942.942,0,0,1-.908-.952,12.181,12.181,0,0,1,.088-1.421l1.567-11.938h.117q2.168,4.526,3.12,6.665.4.835,1.626,3.179,1.2,2.373,1.831,3.633a12.053,12.053,0,0,0,.63,1.069q.234.425.41.425.249.088,1.113-1.685l6.548-13.608h.117l1.8,13.2a4.33,4.33,0,0,1,.059.923q-.059.308-.22.366-.322.117-.322.322-.059.249.864.337,3.4.146,6.094.176A1.712,1.712,0,0,0,317.817,0q.205-.088.205-.234-.029-.22-.483-.22a7.249,7.249,0,0,1-1.86-.293q-1.187-.308-1.465-3.032l-2.725-18.545q-.117-.923-.542-.923-.366,0-.659.718L302.128-5.405h0L293.94-22.324a4.034,4.034,0,0,0-.454-.776.566.566,0,0,0-.366-.146q-.352,0-.5.776Zm40.123-4.819a.311.311,0,0,1,.308.205l2.4,6.357q.146.571-.278.688-.41.029-.41.278.029.234.894.234,3.838.059,5.669.059A4.881,4.881,0,0,0,339.5,0q.234-.029.234-.205,0-.249-.381-.249a7.557,7.557,0,0,1-1.26-.117,2.579,2.579,0,0,1-1.113-.688,8.926,8.926,0,0,1-1.538-2.578q-4.614-11.4-7.427-18.457-.4-.952-.762-.952-.352-.029-.835,1.2L318.887-3.208a10.545,10.545,0,0,1-.425.981,3.117,3.117,0,0,1-.527.85,2.381,2.381,0,0,1-1.6.864,7.2,7.2,0,0,1-.923.059q-.366,0-.366.249,0,.293.571.293,2.7-.059,3.53-.088,1.567.029,3.193.088.5,0,.5-.293.029-.249-.439-.249h-.454a1.253,1.253,0,0,1-.937-.293.829.829,0,0,1-.264-.63,5.727,5.727,0,0,1,.454-1.831L322.813-7.5a.269.269,0,0,1,.278-.234Zm-6.079-1.509q-.19,0-.117-.205l2.754-7.383q.059-.234.176-.264.117.029.146.264l2.71,7.412q.059.176-.146.176Zm20.026.63q0,4.321-.146,6.387a3.144,3.144,0,0,1-.205,1.084,1,1,0,0,1-.659.571,3.97,3.97,0,0,1-1.084.117q-.513,0-.483.249,0,.293.6.293Q344.025.029,345.519,0l4.717.088q.527,0,.571-.293,0-.249-.483-.249a9.913,9.913,0,0,1-1.538-.117,1.069,1.069,0,0,1-.864-.571,2.724,2.724,0,0,1-.308-1.04q-.176-2.109-.146-6.431V-20.9l3.779.088a6.03,6.03,0,0,1,2.769.542,1.385,1.385,0,0,1,.776,1.128l.029.337q0,.63.322.6.249,0,.278-.483.059-1.86.088-3.472,0-.63-.234-.63a5.549,5.549,0,0,0-.82.146,10.461,10.461,0,0,1-2.065.146h-11.88a29.317,29.317,0,0,1-3-.146,2.217,2.217,0,0,1-.806-.205,1.071,1.071,0,0,0-.483-.161q-.234,0-.352.571-.059.308-.337,1.626-.088.6-.176,1.113a3.592,3.592,0,0,0-.117.718q-.029.469.264.469t.337-.352a4.294,4.294,0,0,1,.5-1.055,1.827,1.827,0,0,1,1-.688,10.6,10.6,0,0,1,1.919-.176l4.468-.117ZM368.255.513q5.786-.088,9.082-3.6a12.149,12.149,0,0,0,3.34-8.7q-.249-10.972-12.129-11.221-6.68.117-9.536,3.94a12.426,12.426,0,0,0-2.842,7.822,12.443,12.443,0,0,0,2.813,7.866Q361.868.4,368.255.513ZM369.514-1a8.1,8.1,0,0,1-6.753-3.267,12.382,12.382,0,0,1-2.461-7.91,13.4,13.4,0,0,1,.688-4.658,7.089,7.089,0,0,1,1.743-2.842,5.974,5.974,0,0,1,2.4-1.509,8.963,8.963,0,0,1,2.549-.381,8.036,8.036,0,0,1,6.27,2.9q2.461,2.886,2.52,7.983a14.821,14.821,0,0,1-.776,5.127,7.281,7.281,0,0,1-1.89,2.944,6.413,6.413,0,0,1-2.314,1.289A7.449,7.449,0,0,1,369.514-1ZM388.764.513A10.738,10.738,0,0,0,391.2.234a7.365,7.365,0,0,0,2.344-.952,6.519,6.519,0,0,0,2.241-2.52,7,7,0,0,0,.571-2.7,7.131,7.131,0,0,0-1.1-3.882,16.054,16.054,0,0,0-3.823-3.779l-.835-.63a13.193,13.193,0,0,1-2.49-2.358,3.109,3.109,0,0,1-.688-1.963,2.828,2.828,0,0,1,1-2.241,3.6,3.6,0,0,1,2.578-.85,4.471,4.471,0,0,1,2.212.513,3.441,3.441,0,0,1,1.055.967,3.579,3.579,0,0,1,.659,1.172,4.694,4.694,0,0,1,.117.806q0,.542.308.542.322.029.322-.908,0-1.729.059-2.549t.059-1.04q0-.308-.41-.366a13.924,13.924,0,0,0-1.538-.352,15.6,15.6,0,0,0-2.461-.161,7.739,7.739,0,0,0-5.01,1.567,5.068,5.068,0,0,0-1.919,4.1,6.5,6.5,0,0,0,1,3.486,14.346,14.346,0,0,0,3.442,3.633l1.392,1.069a8.178,8.178,0,0,1,2.417,2.549,3.773,3.773,0,0,1,.454,1.113,11.191,11.191,0,0,1,.059,1.143,3.3,3.3,0,0,1-.981,2.285,4.017,4.017,0,0,1-3.032,1.143,4.917,4.917,0,0,1-2.578-.7A4.019,4.019,0,0,1,384.9-3.955a5.456,5.456,0,0,1-.264-1.538,1.82,1.82,0,0,0-.029-.352q-.029-.161-.278-.161-.322.029-.352.791-.132,1.069-.161,3.926a1.391,1.391,0,0,0,.117.659,1.115,1.115,0,0,0,.454.366A11.322,11.322,0,0,0,388.764.513ZM7.682,23.359a.186.186,0,0,1,.185.123L9.308,27.3q.088.343-.167.413-.246.018-.246.167.018.141.536.141,2.3.035,3.4.035A2.929,2.929,0,0,0,13.518,28q.141-.018.141-.123,0-.149-.229-.149a4.534,4.534,0,0,1-.756-.07,1.547,1.547,0,0,1-.668-.413,5.356,5.356,0,0,1-.923-1.547Q8.314,18.859,6.627,14.623q-.237-.571-.457-.571-.211-.018-.5.721l-4.518,11.3a6.327,6.327,0,0,1-.255.589,1.87,1.87,0,0,1-.316.51,1.429,1.429,0,0,1-.958.519,4.323,4.323,0,0,1-.554.035q-.22,0-.22.149,0,.176.343.176Q.809,28.018,1.31,28q.94.018,1.916.053.3,0,.3-.176.018-.149-.264-.149H2.988a.752.752,0,0,1-.562-.176.5.5,0,0,1-.158-.378,3.436,3.436,0,0,1,.272-1.1L3.507,23.5a.161.161,0,0,1,.167-.141Zm-3.647-.905q-.114,0-.07-.123L5.616,17.9q.035-.141.105-.158.07.018.088.158l1.626,4.447q.035.105-.088.105Zm11.694.378q0,2.593-.088,3.832a1.973,1.973,0,0,1-.149.65.53.53,0,0,1-.378.343,2.324,2.324,0,0,1-.65.07q-.3,0-.281.149,0,.176.36.176Q15.9,28.018,16.809,28q.7,0,1.758.105t2.074.114a9.48,9.48,0,0,0,3.955-.756,7.748,7.748,0,0,0,1.266-.7,5.2,5.2,0,0,0,.809-.668,7,7,0,0,0,1.371-2.057,7.372,7.372,0,0,0,.589-2.962,7,7,0,0,0-.519-2.76A6.2,6.2,0,0,0,26.89,16.5a6.379,6.379,0,0,0-3.5-1.793,22.434,22.434,0,0,0-3.727-.255L16.9,14.5q-.958-.035-2.593-.053-.4,0-.4.158,0,.185.308.167a3.821,3.821,0,0,1,.7.053.817.817,0,0,1,.606.325,1.405,1.405,0,0,1,.167.7q.035.281.035,3.814Zm2.25-3.454q0-2.408.018-3.595a.323.323,0,0,1,.211-.36,2.455,2.455,0,0,1,.527-.114q.36-.018.65-.018a10.207,10.207,0,0,1,2.461.308,6.086,6.086,0,0,1,2.646,1.494,4.945,4.945,0,0,1,.615.668,5.605,5.605,0,0,1,.554.984,6.649,6.649,0,0,1,.563,2.848,9.327,9.327,0,0,1-.325,2.54,4.166,4.166,0,0,1-1.187,1.942,5.893,5.893,0,0,1-4.14,1.292,4.148,4.148,0,0,1-1.608-.246,1.672,1.672,0,0,1-.756-.475,1.368,1.368,0,0,1-.123-.606q-.053-.413-.07-.756-.035-.65-.035-3.639Zm17.661,7.831a5.429,5.429,0,0,0,.4.844q.123.255.281.255.185,0,.343-.29t.492-1.046q.624-1.459,2.391-5.484,1.274-2.83,2.162-4.878a9.541,9.541,0,0,1,.606-1.2,1.466,1.466,0,0,1,.378-.422,1.3,1.3,0,0,1,.51-.193q.246-.018.378-.018.281.018.281-.167-.018-.158-.378-.158-.431,0-.914.018-.5.035-.773.035-.448-.035-1.89-.053-.5,0-.5.176.018.167.3.149a2.891,2.891,0,0,1,.721.088.355.355,0,0,1,.237.343,2.4,2.4,0,0,1-.167.668q-1.512,3.885-3.542,8.965h-.07l-3.094-8.174a4.523,4.523,0,0,1-.422-1.389.423.423,0,0,1,.185-.378,1.645,1.645,0,0,1,.7-.123q.246.018.272-.167-.026-.158-.422-.158L31.9,14.5q-1.063-.035-2.61-.053a2.653,2.653,0,0,0-.325.018q-.149.035-.149.141,0,.167.22.167a4.831,4.831,0,0,1,.7.07,1.829,1.829,0,0,1,.791.36,2.792,2.792,0,0,1,.571,1.011Zm15.622,1.1a7.131,7.131,0,0,0,7.453-7.383q-.149-6.583-7.277-6.732-4.008.07-5.722,2.364A7.377,7.377,0,0,0,45.7,25.97Q47.43,28.237,51.262,28.308Zm.756-.905a4.857,4.857,0,0,1-4.052-1.96A7.429,7.429,0,0,1,46.489,20.7,8.038,8.038,0,0,1,46.9,17.9,4.254,4.254,0,0,1,47.948,16.2a3.584,3.584,0,0,1,1.441-.905,5.378,5.378,0,0,1,1.529-.229,4.822,4.822,0,0,1,3.762,1.74,7.287,7.287,0,0,1,1.512,4.79,8.892,8.892,0,0,1-.466,3.076,4.368,4.368,0,0,1-1.134,1.767,3.848,3.848,0,0,1-1.389.773A4.469,4.469,0,0,1,52.018,27.4Zm21.74-2.531q0-1.354.018-2.162,0-.923.686-1.028a3.045,3.045,0,0,1,.483-.053q.22,0,.237-.141,0-.185-.36-.185-1.081.035-2.109.053Q71.7,21.32,70.1,21.3q-.378,0-.378.185,0,.141.272.141a3.821,3.821,0,0,1,.7.053.881.881,0,0,1,.624.325,1.144,1.144,0,0,1,.149.7q.018.791.018,2.127v1.688a.673.673,0,0,1-.343.668,2.739,2.739,0,0,1-.738.158q-.413.035-.791.035a5.786,5.786,0,0,1-4.535-1.942,6.932,6.932,0,0,1-1.731-4.825,7.1,7.1,0,0,1,.448-2.733,4.228,4.228,0,0,1,1.213-1.67,4.626,4.626,0,0,1,1.89-.958,8.063,8.063,0,0,1,1.67-.158,6.655,6.655,0,0,1,2.575.466,4.354,4.354,0,0,1,1.441.932,2.085,2.085,0,0,1,.466.773,2.794,2.794,0,0,1,.141.721q.018.237.185.237.193.018.193-.378A28.458,28.458,0,0,1,73.7,14.9q.018-.193-.255-.211a12.07,12.07,0,0,1-1.424-.2,16.165,16.165,0,0,0-3.182-.29,12.632,12.632,0,0,0-2.32.185A7.354,7.354,0,0,0,64,15.361a6.288,6.288,0,0,0-2.162,2.232,6.79,6.79,0,0,0-.967,3.656q.053,3.709,2.514,5.379a9.863,9.863,0,0,0,5.8,1.679,14.766,14.766,0,0,0,2.268-.185A6.884,6.884,0,0,0,73.52,27.5a.533.533,0,0,0,.22-.2,3.753,3.753,0,0,0,.018-.448Zm9.927-1.512a.186.186,0,0,1,.185.123L85.31,27.3q.088.343-.167.413-.246.018-.246.167.018.141.536.141,2.3.035,3.4.035A2.929,2.929,0,0,0,89.52,28q.141-.018.141-.123,0-.149-.229-.149a4.534,4.534,0,0,1-.756-.07,1.547,1.547,0,0,1-.668-.413,5.356,5.356,0,0,1-.923-1.547q-2.769-6.838-4.456-11.074-.237-.571-.457-.571-.211-.018-.5.721l-4.518,11.3a6.327,6.327,0,0,1-.255.589,1.87,1.87,0,0,1-.316.51,1.429,1.429,0,0,1-.958.519,4.323,4.323,0,0,1-.554.035q-.22,0-.22.149,0,.176.343.176,1.617-.035,2.118-.053.94.018,1.916.053.3,0,.3-.176.018-.149-.264-.149h-.272a.752.752,0,0,1-.562-.176.5.5,0,0,1-.158-.378,3.436,3.436,0,0,1,.272-1.1l.967-2.575a.161.161,0,0,1,.167-.141Zm-3.647-.905q-.114,0-.07-.123l1.652-4.43q.035-.141.105-.158.07.018.088.158l1.626,4.447q.035.105-.088.105Zm11.694.378q0,2.593-.088,3.832a1.973,1.973,0,0,1-.149.65.53.53,0,0,1-.378.343,2.324,2.324,0,0,1-.65.07q-.3,0-.281.149,0,.176.36.176,1.362-.035,2.268-.053.7,0,1.758.105t2.074.114a9.48,9.48,0,0,0,3.955-.756,7.748,7.748,0,0,0,1.266-.7,5.2,5.2,0,0,0,.809-.668,7,7,0,0,0,1.371-2.057,7.372,7.372,0,0,0,.589-2.962,7,7,0,0,0-.519-2.76,6.2,6.2,0,0,0-1.222-1.819,6.379,6.379,0,0,0-3.5-1.793,22.434,22.434,0,0,0-3.727-.255L92.9,14.5q-.958-.035-2.593-.053-.4,0-.4.158,0,.185.308.167a3.821,3.821,0,0,1,.7.053.817.817,0,0,1,.606.325,1.405,1.405,0,0,1,.167.7q.035.281.035,3.814Zm2.25-3.454q0-2.408.018-3.595a.323.323,0,0,1,.211-.36,2.455,2.455,0,0,1,.527-.114q.36-.018.65-.018a10.207,10.207,0,0,1,2.461.308,6.086,6.086,0,0,1,2.646,1.494,4.945,4.945,0,0,1,.615.668,5.605,5.605,0,0,1,.554.984,6.649,6.649,0,0,1,.563,2.848,9.327,9.327,0,0,1-.325,2.54,4.166,4.166,0,0,1-1.187,1.942,5.893,5.893,0,0,1-4.14,1.292,4.148,4.148,0,0,1-1.608-.246,1.672,1.672,0,0,1-.756-.475,1.368,1.368,0,0,1-.123-.606q-.053-.413-.07-.756-.035-.65-.035-3.639Zm20.07,8.93a7.131,7.131,0,0,0,7.453-7.383q-.149-6.583-7.277-6.732-4.008.07-5.722,2.364a7.377,7.377,0,0,0-.018,9.413Q110.218,28.237,114.05,28.308Zm.756-.905a4.857,4.857,0,0,1-4.052-1.96,7.429,7.429,0,0,1-1.477-4.746,8.038,8.038,0,0,1,.413-2.795,4.254,4.254,0,0,1,1.046-1.705,3.584,3.584,0,0,1,1.441-.905,5.378,5.378,0,0,1,1.529-.229,4.822,4.822,0,0,1,3.762,1.74,7.287,7.287,0,0,1,1.512,4.79,8.892,8.892,0,0,1-.466,3.076,4.368,4.368,0,0,1-1.134,1.767,3.848,3.848,0,0,1-1.389.773A4.469,4.469,0,0,1,114.806,27.4Zm12.45.905a6.443,6.443,0,0,0,1.459-.167,4.419,4.419,0,0,0,1.406-.571,3.911,3.911,0,0,0,1.345-1.512,4.2,4.2,0,0,0,.343-1.617,4.279,4.279,0,0,0-.659-2.329,9.632,9.632,0,0,0-2.294-2.268l-.5-.378a7.916,7.916,0,0,1-1.494-1.415,1.865,1.865,0,0,1-.413-1.178,1.7,1.7,0,0,1,.6-1.345,2.16,2.16,0,0,1,1.547-.51,2.683,2.683,0,0,1,1.327.308,2.064,2.064,0,0,1,.633.58,2.147,2.147,0,0,1,.4.7,2.816,2.816,0,0,1,.07.483q0,.325.185.325.193.018.193-.545,0-1.037.035-1.529t.035-.624q0-.185-.246-.22a8.354,8.354,0,0,0-.923-.211,9.361,9.361,0,0,0-1.477-.1,4.643,4.643,0,0,0-3.006.94,3.041,3.041,0,0,0-1.151,2.461,3.9,3.9,0,0,0,.6,2.092,8.607,8.607,0,0,0,2.065,2.18l.835.642a4.907,4.907,0,0,1,1.45,1.529,2.264,2.264,0,0,1,.272.668,6.715,6.715,0,0,1,.035.686,1.98,1.98,0,0,1-.589,1.371,2.41,2.41,0,0,1-1.819.686,2.95,2.95,0,0,1-1.547-.422,2.411,2.411,0,0,1-1.028-1.4,3.274,3.274,0,0,1-.158-.923,1.092,1.092,0,0,0-.018-.211q-.018-.1-.167-.1-.193.018-.211.475-.079.642-.1,2.355a.835.835,0,0,0,.07.4.669.669,0,0,0,.272.22A6.793,6.793,0,0,0,127.255,28.308Zm19.327-4.948a.186.186,0,0,1,.185.123l1.441,3.814q.088.343-.167.413-.246.018-.246.167.018.141.536.141,2.3.035,3.4.035a2.929,2.929,0,0,0,.686-.053q.141-.018.141-.123,0-.149-.229-.149a4.534,4.534,0,0,1-.756-.07,1.547,1.547,0,0,1-.668-.413,5.356,5.356,0,0,1-.923-1.547q-2.769-6.838-4.456-11.074-.237-.571-.457-.571-.211-.018-.5.721l-4.518,11.3a6.327,6.327,0,0,1-.255.589,1.87,1.87,0,0,1-.316.51,1.429,1.429,0,0,1-.958.519,4.323,4.323,0,0,1-.554.035q-.22,0-.22.149,0,.176.343.176,1.617-.035,2.118-.053.94.018,1.916.053.3,0,.3-.176.018-.149-.264-.149h-.272a.752.752,0,0,1-.562-.176.5.5,0,0,1-.158-.378,3.436,3.436,0,0,1,.272-1.1l.967-2.575a.161.161,0,0,1,.167-.141Zm-3.647-.905q-.114,0-.07-.123l1.652-4.43q.035-.141.105-.158.07.018.088.158l1.626,4.447q.035.105-.088.105Zm13.153,5.854a6.443,6.443,0,0,0,1.459-.167,4.419,4.419,0,0,0,1.406-.571,3.911,3.911,0,0,0,1.345-1.512,4.2,4.2,0,0,0,.343-1.617,4.279,4.279,0,0,0-.659-2.329,9.632,9.632,0,0,0-2.294-2.268l-.5-.378a7.916,7.916,0,0,1-1.494-1.415,1.865,1.865,0,0,1-.413-1.178,1.7,1.7,0,0,1,.6-1.345,2.16,2.16,0,0,1,1.547-.51,2.683,2.683,0,0,1,1.327.308,2.064,2.064,0,0,1,.633.58,2.147,2.147,0,0,1,.4.7,2.816,2.816,0,0,1,.07.483q0,.325.185.325.193.018.193-.545,0-1.037.035-1.529t.035-.624q0-.185-.246-.22a8.354,8.354,0,0,0-.923-.211,9.361,9.361,0,0,0-1.477-.1,4.643,4.643,0,0,0-3.006.94,3.041,3.041,0,0,0-1.151,2.461,3.9,3.9,0,0,0,.6,2.092,8.607,8.607,0,0,0,2.065,2.18l.835.642a4.907,4.907,0,0,1,1.45,1.529,2.264,2.264,0,0,1,.272.668,6.715,6.715,0,0,1,.035.686,1.98,1.98,0,0,1-.589,1.371,2.41,2.41,0,0,1-1.819.686,2.95,2.95,0,0,1-1.547-.422,2.411,2.411,0,0,1-1.028-1.4,3.274,3.274,0,0,1-.158-.923,1.092,1.092,0,0,0-.018-.211q-.018-.1-.167-.1-.193.018-.211.475-.079.642-.1,2.355a.835.835,0,0,0,.07.4.669.669,0,0,0,.272.22A6.793,6.793,0,0,0,156.087,28.308Zm10.657,0a6.443,6.443,0,0,0,1.459-.167,4.419,4.419,0,0,0,1.406-.571,3.911,3.911,0,0,0,1.345-1.512,4.2,4.2,0,0,0,.343-1.617,4.279,4.279,0,0,0-.659-2.329,9.632,9.632,0,0,0-2.294-2.268l-.5-.378a7.916,7.916,0,0,1-1.494-1.415,1.865,1.865,0,0,1-.413-1.178,1.7,1.7,0,0,1,.6-1.345,2.16,2.16,0,0,1,1.547-.51,2.683,2.683,0,0,1,1.327.308,2.064,2.064,0,0,1,.633.58,2.147,2.147,0,0,1,.4.7,2.816,2.816,0,0,1,.07.483q0,.325.185.325.193.018.193-.545,0-1.037.035-1.529t.035-.624q0-.185-.246-.22a8.354,8.354,0,0,0-.923-.211,9.361,9.361,0,0,0-1.477-.1,4.643,4.643,0,0,0-3.006.94,3.041,3.041,0,0,0-1.151,2.461,3.9,3.9,0,0,0,.6,2.092,8.607,8.607,0,0,0,2.065,2.18l.835.642a4.907,4.907,0,0,1,1.45,1.529,2.264,2.264,0,0,1,.272.668,6.715,6.715,0,0,1,.035.686,1.98,1.98,0,0,1-.589,1.371,2.41,2.41,0,0,1-1.819.686,2.95,2.95,0,0,1-1.547-.422,2.411,2.411,0,0,1-1.028-1.4,3.274,3.274,0,0,1-.158-.923,1.092,1.092,0,0,0-.018-.211q-.018-.1-.167-.1-.193.018-.211.475-.079.642-.1,2.355a.835.835,0,0,0,.07.4.669.669,0,0,0,.272.22A6.793,6.793,0,0,0,166.744,28.308Zm14.313,0a7.131,7.131,0,0,0,7.453-7.383q-.149-6.583-7.277-6.732-4.008.07-5.722,2.364a7.377,7.377,0,0,0-.018,9.413Q177.225,28.237,181.057,28.308Zm.756-.905a4.857,4.857,0,0,1-4.052-1.96,7.429,7.429,0,0,1-1.477-4.746A8.038,8.038,0,0,1,176.7,17.9a4.254,4.254,0,0,1,1.046-1.705,3.584,3.584,0,0,1,1.441-.905,5.378,5.378,0,0,1,1.529-.229,4.822,4.822,0,0,1,3.762,1.74,7.287,7.287,0,0,1,1.512,4.79,8.892,8.892,0,0,1-.466,3.076,4.368,4.368,0,0,1-1.134,1.767,3.848,3.848,0,0,1-1.389.773A4.469,4.469,0,0,1,181.813,27.4Zm17.257.905a15.109,15.109,0,0,0,1.784-.105,7.534,7.534,0,0,0,1.459-.308.729.729,0,0,0,.316-.22.527.527,0,0,0,.149-.308q.141-.536.272-1.362a8.813,8.813,0,0,0,.123-1.028q0-.255-.167-.272t-.229.36a2.855,2.855,0,0,1-.615,1.187,4.193,4.193,0,0,1-3.3,1.011,5.553,5.553,0,0,1-3.718-1.6,6.189,6.189,0,0,1-1.951-4.808,8.59,8.59,0,0,1,.343-2.558,4.466,4.466,0,0,1,4.7-3.217,5.117,5.117,0,0,1,3.647,1.116,2.488,2.488,0,0,1,.7,1.652q-.018.4.185.4t.211-.413q.044-.791.062-1.942.07-.87.088-.993,0-.176-.272-.211-.4-.062-.826-.167-.448-.088-.976-.141a15.79,15.79,0,0,0-2.61-.185,9.656,9.656,0,0,0-3.349.51,6.736,6.736,0,0,0-2.338,1.4,6.338,6.338,0,0,0-1.687,2.593,7.566,7.566,0,0,0-.413,2.338,8.028,8.028,0,0,0,.466,2.725,6.209,6.209,0,0,0,1.767,2.593A9.333,9.333,0,0,0,199.07,28.308Zm8.134-5.476q0,2.7-.088,3.929-.035.791-.527.9a2.324,2.324,0,0,1-.65.07q-.3,0-.281.149,0,.176.36.176,1.362-.035,2.268-.053l2.8.053q.325,0,.343-.176,0-.149-.29-.149a5.89,5.89,0,0,1-.914-.07.639.639,0,0,1-.527-.308,1.391,1.391,0,0,1-.193-.571q-.088-1.248-.07-3.946V19.668q0-1.978.018-2.716,0-.738.018-1.1a1.483,1.483,0,0,1,.176-.738.664.664,0,0,1,.492-.29,3.117,3.117,0,0,1,.536-.053q.29.018.29-.185-.018-.141-.378-.141-1.283.035-2.2.053-1.046-.035-2.338-.053-.431,0-.431.141,0,.2.281.185a2.912,2.912,0,0,1,.65.07q.58.105.615,1.011.035.281.035,3.814Zm13.047.527a.186.186,0,0,1,.185.123l1.441,3.814q.088.343-.167.413-.246.018-.246.167.018.141.536.141,2.3.035,3.4.035a2.929,2.929,0,0,0,.686-.053q.141-.018.141-.123,0-.149-.229-.149a4.534,4.534,0,0,1-.756-.07,1.547,1.547,0,0,1-.668-.413,5.356,5.356,0,0,1-.923-1.547q-2.769-6.838-4.456-11.074-.237-.571-.457-.571-.211-.018-.5.721l-4.518,11.3a6.327,6.327,0,0,1-.255.589,1.87,1.87,0,0,1-.316.51,1.429,1.429,0,0,1-.958.519,4.323,4.323,0,0,1-.554.035q-.22,0-.22.149,0,.176.343.176,1.617-.035,2.118-.053.94.018,1.916.053.3,0,.3-.176.018-.149-.264-.149h-.272a.752.752,0,0,1-.562-.176.5.5,0,0,1-.158-.378,3.436,3.436,0,0,1,.272-1.1l.967-2.575a.161.161,0,0,1,.167-.141Zm-3.647-.905q-.114,0-.07-.123l1.652-4.43q.035-.141.105-.158.07.018.088.158l1.626,4.447q.035.105-.088.105Zm11.694.378q0,2.593-.088,3.832a1.973,1.973,0,0,1-.149.65.53.53,0,0,1-.378.343,2.324,2.324,0,0,1-.65.07q-.3,0-.281.149,0,.176.36.176,1.362-.035,2.268-.053.7,0,1.758.105t2.074.114a9.48,9.48,0,0,0,3.955-.756,7.748,7.748,0,0,0,1.266-.7,5.2,5.2,0,0,0,.809-.668,7,7,0,0,0,1.371-2.057,7.372,7.372,0,0,0,.589-2.962,7,7,0,0,0-.519-2.76,6.2,6.2,0,0,0-1.222-1.819,6.379,6.379,0,0,0-3.5-1.793,22.434,22.434,0,0,0-3.727-.255l-2.769.053q-.958-.035-2.593-.053-.4,0-.4.158,0,.185.308.167a3.821,3.821,0,0,1,.7.053.817.817,0,0,1,.606.325,1.405,1.405,0,0,1,.167.7q.035.281.035,3.814Zm2.25-3.454q0-2.408.018-3.595a.323.323,0,0,1,.211-.36,2.455,2.455,0,0,1,.527-.114q.36-.018.65-.018a10.207,10.207,0,0,1,2.461.308,6.086,6.086,0,0,1,2.646,1.494,4.945,4.945,0,0,1,.615.668,5.605,5.605,0,0,1,.554.984,6.649,6.649,0,0,1,.563,2.848,9.327,9.327,0,0,1-.325,2.54,4.166,4.166,0,0,1-1.187,1.942,5.893,5.893,0,0,1-4.14,1.292,4.148,4.148,0,0,1-1.608-.246,1.672,1.672,0,0,1-.756-.475,1.368,1.368,0,0,1-.123-.606q-.053-.413-.07-.756-.035-.65-.035-3.639Zm20.07,8.93a7.131,7.131,0,0,0,7.453-7.383q-.149-6.583-7.277-6.732-4.008.07-5.722,2.364a7.377,7.377,0,0,0-.018,9.413Q246.785,28.237,250.617,28.308Zm.756-.905a4.857,4.857,0,0,1-4.052-1.96,7.429,7.429,0,0,1-1.477-4.746,8.038,8.038,0,0,1,.413-2.795A4.254,4.254,0,0,1,247.3,16.2a3.584,3.584,0,0,1,1.441-.905,5.378,5.378,0,0,1,1.529-.229,4.822,4.822,0,0,1,3.762,1.74,7.287,7.287,0,0,1,1.512,4.79,8.892,8.892,0,0,1-.466,3.076,4.368,4.368,0,0,1-1.134,1.767,3.848,3.848,0,0,1-1.389.773A4.469,4.469,0,0,1,251.373,27.4Zm12.45.905a6.443,6.443,0,0,0,1.459-.167,4.419,4.419,0,0,0,1.406-.571,3.911,3.911,0,0,0,1.345-1.512,4.2,4.2,0,0,0,.343-1.617,4.279,4.279,0,0,0-.659-2.329,9.632,9.632,0,0,0-2.294-2.268l-.5-.378a7.916,7.916,0,0,1-1.494-1.415,1.865,1.865,0,0,1-.413-1.178,1.7,1.7,0,0,1,.6-1.345,2.16,2.16,0,0,1,1.547-.51,2.683,2.683,0,0,1,1.327.308,2.064,2.064,0,0,1,.633.58,2.147,2.147,0,0,1,.4.7,2.816,2.816,0,0,1,.07.483q0,.325.185.325.193.018.193-.545,0-1.037.035-1.529t.035-.624q0-.185-.246-.22a8.354,8.354,0,0,0-.923-.211,9.361,9.361,0,0,0-1.477-.1,4.643,4.643,0,0,0-3.006.94,3.041,3.041,0,0,0-1.151,2.461,3.9,3.9,0,0,0,.6,2.092,8.607,8.607,0,0,0,2.065,2.18l.835.642a4.907,4.907,0,0,1,1.45,1.529,2.264,2.264,0,0,1,.272.668,6.715,6.715,0,0,1,.035.686,1.98,1.98,0,0,1-.589,1.371,2.41,2.41,0,0,1-1.819.686,2.95,2.95,0,0,1-1.547-.422,2.411,2.411,0,0,1-1.028-1.4,3.274,3.274,0,0,1-.158-.923,1.092,1.092,0,0,0-.018-.211q-.018-.1-.167-.1-.193.018-.211.475-.079.642-.1,2.355a.835.835,0,0,0,.07.4.669.669,0,0,0,.272.22A6.793,6.793,0,0,0,263.822,28.308Z" transform="translate(434 158)"/>
  </g>
</svg>
