<svg xmlns="http://www.w3.org/2000/svg" width="318.033" height="161" viewBox="0 0 318.033 161"><g transform="translate(-282.967 -121)"><g transform="translate(-468 275)"><g transform="translate(750.967 -154)"><path d="M-963.952,39.574h-9.255V91.71q0,6.135,1.351,8.275t5.252,2.141v1.966h-21.579v-1.966q4.026,0,5.47-2.459t1.445-8.3V39.574h-8.861q-6.36,0-9.253,2.255t-3.257,7.457h-1.768V33.735h1.768q2.446,2.544,9.162,2.543h32.01q6.922,0,9.682-2.543h1.924V49.286h-1.2q-1.144-5.607-4.082-7.66T-963.952,39.574Z" transform="translate(1004.406 -33.735)" fill="#1a5088"/><g transform="translate(45.151 2.543)"><path d="M-876.4,37.662H-862v1.966q-6.864.173-6.864,9.018,0,.752.052,1.561l3.068,41.8q.519,6.683,2.054,8.89t5.538,2.614v1.966H-880.1v-1.966a7.567,7.567,0,0,0,4.924-2.558q1.433-1.919,1.433-5.873,0-.813-.052-1.8l-3.263-43.855-20.9,56.054h-1.6l-20.62-55.922-3.43,41.7q-.053.981-.052,1.853,0,8.773,7.937,10.4v1.966h-18.979v-1.966a7.784,7.784,0,0,0,5.486-2.98q1.69-2.395,2.314-9.507l3.692-46.654a13.21,13.21,0,0,0-7.956-4.74V37.662h15.453l19.516,53.36Z" transform="translate(934.694 -37.662)" fill="#5e7c86"/></g><g transform="translate(39.607 2.543)" style="mix-blend-mode:multiply;isolation:isolate"><path d="M-923.34,74.083h-4.94V92.735q0,6.024,1.534,8.4t5.433,2.374v1.966h-21.943v-1.966q4.056,0,5.486-2.372t1.43-8.391V50.217q0-6.018-1.4-8.3t-5.512-2.286V37.662h25.011q9.255,0,14.793,5a16.416,16.416,0,0,1,5.538,12.747q0,12.488-12.583,16.65a25.817,25.817,0,0,1,5.4,5.4,90.71,90.71,0,0,1,6.9,11.43q4.787,8.861,7.482,11.622a8.881,8.881,0,0,0,5.595,2.992v1.966H-897.6a134.278,134.278,0,0,1-9.308-15.114q-5.824-10.485-9.125-13.381A10.826,10.826,0,0,0-923.34,74.083Zm1.456-33.82h-6.4V71.25h7.488q6.707,0,10.529-4.278t3.822-11.331a15.071,15.071,0,0,0-4.238-11.129Q-914.917,40.264-921.884,40.264Z" transform="translate(943.255 -37.662)" fill="#395644"/></g><circle cx="8.804" cy="8.804" r="8.804" transform="translate(115.425 5.245)" fill="#5e7c86"/></g></g><text transform="translate(284 249)" font-size="30" font-family="SegoeUI-Bold, Segoe UI" font-weight="700" letter-spacing="-0.04em"><tspan x="0" y="0">TÁVORA, rubin &amp; matos</tspan><tspan font-size="18" letter-spacing="0.01em"><tspan x="0" y="28">Advogados associados</tspan></tspan></text></g></svg>